{"title":"Tea with Mussolini (1999) Judi Dench + Cher (Optional Swesubs)","uid":4287665,"size":729296638,"categoryP":"video","categoryS":"movies","magnet":"?xt=urn:btih:eab74f0808464b76e1fd39dc53b12d6796465cd4&amp;dn=Tea+with+Mussolini+%281999%29+Judi+Dench+%2B+Cher+%28Optional+Swesubs%29&amp;tr=udp%3A%2F%2Ftracker.openbittorrent.com%3A80&amp;tr=udp%3A%2F%2Fopen.demonii.com%3A1337&amp;tr=udp%3A%2F%2Ftracker.coppersurfer.tk%3A6969&amp;tr=udp%3A%2F%2Fexodus.desync.com%3A6969","seeders":6,"leechers":0,"uploader":"Kuthumi","files":-1,"time":1215789477,"description":"Optional Swedish subtitles in separate idx/sub files. &lt;a href=&quot;\nhttp://www.imdb.com/title/tt0120857/&quot; rel=&quot;nofollow&quot; target=&quot;_NEW&quot;&gt;\nhttp://www.imdb.com/title/tt0120857/&lt;/a&gt;\n\nBritain's great old ladies and Oscar-winners, Judi Dench and Maggie Smith in the same film, and together with Cher! This quality drama from Italy during WW2 portrays the charming and eccentric British ladies living there in their own word, almost refusing to accept that a war was goin on.\n\nWritten and directed by famous multitalent Franco Zeffirelli, based on his own childhood experiences.\n\nDVDrip 2-pass, XviD\nWidescreen 784x384, great stereo sound AC3.\nBurn tested, runs well in both my standalone DivX players.\n\nFormat/Info                      : Audio Video Interleave\nFile size                        : 695 MiB\nDuration                         : 1h 52mn\nOveral bit rate                  : 861 Kbps\n\nVideo\nFormat                           : MPEG-4 Visual\nFormat profile                   : Streaming Video@L1\nFormat settings, BVOP            : Yes\nFormat settings, QPel            : No\nFormat settings, GMC             : No warppoints\nFormat settings, Matrix          : Default\nMuxing mode                      : Packet Bitstream\nCodec ID                         : XVID\nCodec ID/Hint                    : XviD\nDuration                         : 1h 52mn\nBit rate                         : 724 Kbps\nWidth                            : 704 pixels\nHeight                           : 384 pixels\nDisplay aspect ratio             : 16/9\nFrame rate                       : 25.000 fps\nResolution                       : 8 bits\nColorimetry                      : 4:2:0\nScan type                        : Progressive\nBits/(Pixel*Frame)               : 0.107\nStream size                      : 584 MiB\nWriting library                  : XviD 1.2.0.dev47 (UTC 2006-11-01)\n\nAudio\nFormat                           : MPEG Audio\nFormat version                   : Version 1\nFormat profile                   : Layer 3\nCodec ID                         : 55\nCodec ID/Hint                    : MP3\nDuration                         : 1h 52mn\nBit rate mode                    : Constant\nBit rate                         : 128 Kbps\nMinimum bit rate                 : 128 Kbps\nChannel(s)                       : 2 channels\nSampling rate                    : 48.0 KHz\nResolution                       : 16 bits\nStream size                      : 103 MiB\nWriting library                  : LAME3.97 \nEncoding settings                : CBR\n","torrent":{"xt":"urn:btih:eab74f0808464b76e1fd39dc53b12d6796465cd4","amp;dn":"Tea+with+Mussolini+%281999%29+Judi+Dench+%2B+Cher+%28Optional+Swesubs%29","amp;tr":["udp%3A%2F%2Ftracker.openbittorrent.com%3A80","udp%3A%2F%2Fopen.demonii.com%3A1337","udp%3A%2F%2Ftracker.coppersurfer.tk%3A6969","udp%3A%2F%2Fexodus.desync.com%3A6969"],"infoHash":"eab74f0808464b76e1fd39dc53b12d6796465cd4","infoHashBuffer":{"type":"Buffer","data":[234,183,79,8,8,70,75,118,225,253,57,220,83,177,45,103,150,70,92,212]},"announce":[],"urlList":[]}}